<mxfile host="app.diagrams.net" modified="2022-07-11T07:22:39.027Z" agent="5.0 (Windows NT 10.0; Win64; x64) AppleWebKit/537.36 (KHTML, like Gecko) Chrome/103.0.0.0 Safari/537.36" etag="fXdx-WfATZYJhyNGEpwI" version="20.0.4" type="github">
  <diagram id="ApKE_EORpmw5rlKdlsU8" name="Page-1">
    <mxGraphModel dx="866" dy="1659" grid="1" gridSize="10" guides="1" tooltips="1" connect="1" arrows="1" fold="1" page="1" pageScale="1" pageWidth="827" pageHeight="1169" math="0" shadow="0">
      <root>
        <mxCell id="0" />
        <mxCell id="1" parent="0" />
        <mxCell id="erEZE7xV2eGc1fK54UsV-1" value="Player" style="shape=umlActor;verticalLabelPosition=bottom;verticalAlign=top;html=1;outlineConnect=0;" parent="1" vertex="1">
          <mxGeometry x="160" y="240" width="30" height="60" as="geometry" />
        </mxCell>
        <mxCell id="erEZE7xV2eGc1fK54UsV-6" value="" style="swimlane;startSize=0;strokeWidth=1;perimeterSpacing=1;strokeColor=#994C00;" parent="1" vertex="1">
          <mxGeometry x="240" y="-210" width="440" height="770" as="geometry">
            <mxRectangle x="240" y="40" width="50" height="40" as="alternateBounds" />
          </mxGeometry>
        </mxCell>
        <mxCell id="erEZE7xV2eGc1fK54UsV-7" value="" style="html=1;strokeColor=#336600;strokeWidth=1;perimeterSpacing=1;" parent="erEZE7xV2eGc1fK54UsV-6" vertex="1">
          <mxGeometry x="40" y="300" width="360" height="200" as="geometry" />
        </mxCell>
        <mxCell id="erEZE7xV2eGc1fK54UsV-8" value="" style="whiteSpace=wrap;html=1;strokeWidth=1;perimeterSpacing=1;strokeColor=#000066;" parent="erEZE7xV2eGc1fK54UsV-6" vertex="1">
          <mxGeometry x="40" y="540" width="360" height="200" as="geometry" />
        </mxCell>
        <mxCell id="erEZE7xV2eGc1fK54UsV-14" value="Map" style="rounded=0;whiteSpace=wrap;html=1;strokeColor=#336600;strokeWidth=1;perimeterSpacing=1;" parent="erEZE7xV2eGc1fK54UsV-6" vertex="1">
          <mxGeometry x="40" y="300" width="90" height="40" as="geometry" />
        </mxCell>
        <mxCell id="erEZE7xV2eGc1fK54UsV-16" value="Unity Game" style="rounded=0;whiteSpace=wrap;html=1;strokeWidth=1;perimeterSpacing=1;strokeColor=#994C00;" parent="erEZE7xV2eGc1fK54UsV-6" vertex="1">
          <mxGeometry width="90" height="40" as="geometry" />
        </mxCell>
        <mxCell id="erEZE7xV2eGc1fK54UsV-17" value="Menu" style="rounded=0;whiteSpace=wrap;html=1;strokeWidth=1;perimeterSpacing=1;strokeColor=#000066;" parent="erEZE7xV2eGc1fK54UsV-6" vertex="1">
          <mxGeometry x="40" y="540" width="90" height="40" as="geometry" />
        </mxCell>
        <mxCell id="KmZ-jz9EQj2rFkoBg-83-25" style="edgeStyle=orthogonalEdgeStyle;curved=1;rounded=0;orthogonalLoop=1;jettySize=auto;html=1;entryX=0;entryY=0.5;entryDx=0;entryDy=0;fontSize=9;exitX=0.5;exitY=0;exitDx=0;exitDy=0;" parent="erEZE7xV2eGc1fK54UsV-6" source="KmZ-jz9EQj2rFkoBg-83-1" target="KmZ-jz9EQj2rFkoBg-83-2" edge="1">
          <mxGeometry relative="1" as="geometry" />
        </mxCell>
        <mxCell id="KmZ-jz9EQj2rFkoBg-83-26" style="edgeStyle=orthogonalEdgeStyle;curved=1;rounded=0;orthogonalLoop=1;jettySize=auto;html=1;entryX=0;entryY=0.5;entryDx=0;entryDy=0;fontSize=9;exitX=0.5;exitY=1;exitDx=0;exitDy=0;" parent="erEZE7xV2eGc1fK54UsV-6" source="KmZ-jz9EQj2rFkoBg-83-1" target="KmZ-jz9EQj2rFkoBg-83-13" edge="1">
          <mxGeometry relative="1" as="geometry" />
        </mxCell>
        <mxCell id="j03_IQqJDRWAiuvIbawL-9" style="edgeStyle=orthogonalEdgeStyle;curved=1;rounded=0;orthogonalLoop=1;jettySize=auto;html=1;entryX=1;entryY=0;entryDx=0;entryDy=0;exitX=0.958;exitY=0.716;exitDx=0;exitDy=0;exitPerimeter=0;" edge="1" parent="erEZE7xV2eGc1fK54UsV-6" source="KmZ-jz9EQj2rFkoBg-83-1" target="KmZ-jz9EQj2rFkoBg-83-5">
          <mxGeometry relative="1" as="geometry">
            <Array as="points">
              <mxPoint x="370" y="409" />
              <mxPoint x="370" y="676" />
            </Array>
          </mxGeometry>
        </mxCell>
        <mxCell id="KmZ-jz9EQj2rFkoBg-83-1" value="&lt;font style=&quot;font-size: 9px;&quot;&gt;Character Controler&lt;/font&gt;" style="ellipse;whiteSpace=wrap;html=1;" parent="erEZE7xV2eGc1fK54UsV-6" vertex="1">
          <mxGeometry x="70" y="380" width="90" height="40" as="geometry" />
        </mxCell>
        <mxCell id="KmZ-jz9EQj2rFkoBg-83-27" style="edgeStyle=orthogonalEdgeStyle;curved=1;rounded=0;orthogonalLoop=1;jettySize=auto;html=1;entryX=1;entryY=0;entryDx=0;entryDy=0;fontSize=9;exitX=0;exitY=1;exitDx=0;exitDy=0;" parent="erEZE7xV2eGc1fK54UsV-6" source="KmZ-jz9EQj2rFkoBg-83-2" target="KmZ-jz9EQj2rFkoBg-83-1" edge="1">
          <mxGeometry relative="1" as="geometry" />
        </mxCell>
        <mxCell id="KmZ-jz9EQj2rFkoBg-83-2" value="&lt;font style=&quot;font-size: 9px;&quot;&gt;PowerUp&lt;/font&gt;" style="ellipse;whiteSpace=wrap;html=1;" parent="erEZE7xV2eGc1fK54UsV-6" vertex="1">
          <mxGeometry x="230" y="320" width="90" height="40" as="geometry" />
        </mxCell>
        <mxCell id="KmZ-jz9EQj2rFkoBg-83-8" style="edgeStyle=orthogonalEdgeStyle;rounded=0;orthogonalLoop=1;jettySize=auto;html=1;entryX=0;entryY=0.5;entryDx=0;entryDy=0;fontSize=9;curved=1;exitX=0.5;exitY=1;exitDx=0;exitDy=0;" parent="erEZE7xV2eGc1fK54UsV-6" source="KmZ-jz9EQj2rFkoBg-83-3" target="KmZ-jz9EQj2rFkoBg-83-5" edge="1">
          <mxGeometry relative="1" as="geometry" />
        </mxCell>
        <mxCell id="KmZ-jz9EQj2rFkoBg-83-9" style="edgeStyle=orthogonalEdgeStyle;curved=1;rounded=0;orthogonalLoop=1;jettySize=auto;html=1;entryX=0;entryY=0.5;entryDx=0;entryDy=0;fontSize=9;exitX=0.5;exitY=0;exitDx=0;exitDy=0;" parent="erEZE7xV2eGc1fK54UsV-6" source="KmZ-jz9EQj2rFkoBg-83-3" target="KmZ-jz9EQj2rFkoBg-83-4" edge="1">
          <mxGeometry relative="1" as="geometry" />
        </mxCell>
        <mxCell id="KmZ-jz9EQj2rFkoBg-83-3" value="&lt;font style=&quot;font-size: 9px;&quot;&gt;Title Menu&lt;/font&gt;" style="ellipse;whiteSpace=wrap;html=1;" parent="erEZE7xV2eGc1fK54UsV-6" vertex="1">
          <mxGeometry x="70" y="620" width="90" height="40" as="geometry" />
        </mxCell>
        <mxCell id="KmZ-jz9EQj2rFkoBg-83-24" style="edgeStyle=orthogonalEdgeStyle;curved=1;rounded=0;orthogonalLoop=1;jettySize=auto;html=1;entryX=0;entryY=0.5;entryDx=0;entryDy=0;fontSize=9;" parent="erEZE7xV2eGc1fK54UsV-6" source="KmZ-jz9EQj2rFkoBg-83-4" target="KmZ-jz9EQj2rFkoBg-83-1" edge="1">
          <mxGeometry relative="1" as="geometry">
            <Array as="points">
              <mxPoint x="235" y="520" />
              <mxPoint x="50" y="520" />
              <mxPoint x="50" y="400" />
            </Array>
          </mxGeometry>
        </mxCell>
        <mxCell id="KmZ-jz9EQj2rFkoBg-83-4" value="&lt;font style=&quot;font-size: 9px;&quot;&gt;Play Game&lt;/font&gt;" style="ellipse;whiteSpace=wrap;html=1;" parent="erEZE7xV2eGc1fK54UsV-6" vertex="1">
          <mxGeometry x="190" y="560" width="90" height="40" as="geometry" />
        </mxCell>
        <mxCell id="KmZ-jz9EQj2rFkoBg-83-5" value="&lt;font style=&quot;font-size: 9px;&quot;&gt;Pause Menu&lt;/font&gt;" style="ellipse;whiteSpace=wrap;html=1;" parent="erEZE7xV2eGc1fK54UsV-6" vertex="1">
          <mxGeometry x="190" y="670" width="90" height="40" as="geometry" />
        </mxCell>
        <mxCell id="KmZ-jz9EQj2rFkoBg-83-28" style="edgeStyle=orthogonalEdgeStyle;curved=1;rounded=0;orthogonalLoop=1;jettySize=auto;html=1;fontSize=9;entryX=1;entryY=1;entryDx=0;entryDy=0;exitX=0;exitY=0;exitDx=0;exitDy=0;" parent="erEZE7xV2eGc1fK54UsV-6" source="KmZ-jz9EQj2rFkoBg-83-13" target="KmZ-jz9EQj2rFkoBg-83-1" edge="1">
          <mxGeometry relative="1" as="geometry" />
        </mxCell>
        <mxCell id="KmZ-jz9EQj2rFkoBg-83-13" value="&lt;font style=&quot;font-size: 9px;&quot;&gt;Platform&lt;/font&gt;" style="ellipse;whiteSpace=wrap;html=1;" parent="erEZE7xV2eGc1fK54UsV-6" vertex="1">
          <mxGeometry x="230" y="440" width="90" height="40" as="geometry" />
        </mxCell>
        <mxCell id="KmZ-jz9EQj2rFkoBg-83-32" value="" style="html=1;strokeColor=#999900;strokeWidth=1;perimeterSpacing=1;" parent="erEZE7xV2eGc1fK54UsV-6" vertex="1">
          <mxGeometry x="40" y="60" width="360" height="200" as="geometry" />
        </mxCell>
        <mxCell id="KmZ-jz9EQj2rFkoBg-83-33" value="Winning" style="rounded=0;whiteSpace=wrap;html=1;strokeColor=#999900;strokeWidth=1;perimeterSpacing=1;" parent="erEZE7xV2eGc1fK54UsV-6" vertex="1">
          <mxGeometry x="40" y="60" width="90" height="40" as="geometry" />
        </mxCell>
        <mxCell id="j03_IQqJDRWAiuvIbawL-5" style="edgeStyle=orthogonalEdgeStyle;curved=1;rounded=0;orthogonalLoop=1;jettySize=auto;html=1;entryX=1;entryY=1;entryDx=0;entryDy=0;" edge="1" parent="erEZE7xV2eGc1fK54UsV-6" source="KmZ-jz9EQj2rFkoBg-83-34" target="KmZ-jz9EQj2rFkoBg-83-5">
          <mxGeometry relative="1" as="geometry">
            <Array as="points">
              <mxPoint x="410" y="160" />
              <mxPoint x="410" y="704" />
            </Array>
          </mxGeometry>
        </mxCell>
        <mxCell id="KmZ-jz9EQj2rFkoBg-83-34" value="&lt;font size=&quot;1&quot;&gt;Winning options&lt;/font&gt;" style="ellipse;whiteSpace=wrap;html=1;" parent="erEZE7xV2eGc1fK54UsV-6" vertex="1">
          <mxGeometry x="70" y="140" width="90" height="40" as="geometry" />
        </mxCell>
        <mxCell id="KmZ-jz9EQj2rFkoBg-83-35" style="edgeStyle=orthogonalEdgeStyle;curved=1;rounded=0;orthogonalLoop=1;jettySize=auto;html=1;entryX=0;entryY=0.5;entryDx=0;entryDy=0;fontSize=9;exitX=0.96;exitY=0.28;exitDx=0;exitDy=0;exitPerimeter=0;" parent="erEZE7xV2eGc1fK54UsV-6" source="KmZ-jz9EQj2rFkoBg-83-1" target="KmZ-jz9EQj2rFkoBg-83-34" edge="1">
          <mxGeometry relative="1" as="geometry">
            <Array as="points">
              <mxPoint x="370" y="391" />
              <mxPoint x="370" y="280" />
              <mxPoint x="50" y="280" />
              <mxPoint x="50" y="160" />
            </Array>
          </mxGeometry>
        </mxCell>
        <mxCell id="KmZ-jz9EQj2rFkoBg-83-30" style="edgeStyle=orthogonalEdgeStyle;curved=1;rounded=0;orthogonalLoop=1;jettySize=auto;html=1;entryX=0;entryY=0.5;entryDx=0;entryDy=0;fontSize=9;" parent="1" source="erEZE7xV2eGc1fK54UsV-1" target="KmZ-jz9EQj2rFkoBg-83-1" edge="1">
          <mxGeometry relative="1" as="geometry" />
        </mxCell>
        <mxCell id="KmZ-jz9EQj2rFkoBg-83-31" style="edgeStyle=orthogonalEdgeStyle;curved=1;rounded=0;orthogonalLoop=1;jettySize=auto;html=1;entryX=0;entryY=0.5;entryDx=0;entryDy=0;fontSize=9;" parent="1" source="erEZE7xV2eGc1fK54UsV-1" target="KmZ-jz9EQj2rFkoBg-83-3" edge="1">
          <mxGeometry relative="1" as="geometry" />
        </mxCell>
      </root>
    </mxGraphModel>
  </diagram>
</mxfile>
